<svg xmlns="http://www.w3.org/2000/svg" version="1.1" xmlns:xlink="http://www.w3.org/1999/xlink" xmlns:svgjs="http://svgjs.com/svgjs" width="1000" height="1000"><rect width="1000" height="1000" rx="250" ry="250" fill="#555555"></rect><g transform="matrix(7.766990291262136,0,0,7.766990291262136,100.68621069865605,355.0152704084961)"><svg xmlns="http://www.w3.org/2000/svg" version="1.1" xmlns:xlink="http://www.w3.org/1999/xlink" xmlns:svgjs="http://svgjs.com/svgjs" width="103" height="37"><svg width="103" height="37" viewBox="0 0 103 37" fill="none" xmlns="http://www.w3.org/2000/svg">
<path d="M27 36H19.8047L6.84375 13.875V36H0.117188V2.39062H7.3125L20.2734 24.5391V2.39062H27V36ZM39.9844 36H33.2578V2.39062H56.7891V9.11719H39.9844V15.8438H50.0625V22.5703H39.9844V36ZM80.8828 36H79.3359L76.8516 32.5547C76.2422 33.1016 75.5938 33.6172 74.9062 34.1016C74.2344 34.5703 73.5234 34.9844 72.7734 35.3438C72.0234 35.6875 71.25 35.9609 70.4531 36.1641C69.6719 36.3672 68.875 36.4688 68.0625 36.4688C66.2969 36.4688 64.6328 36.1406 63.0703 35.4844C61.5234 34.8125 60.1641 33.8906 58.9922 32.7188C57.8359 31.5312 56.9219 30.1328 56.25 28.5234C55.5781 26.8984 55.2422 25.1328 55.2422 23.2266C55.2422 21.3359 55.5781 19.5781 56.25 17.9531C56.9219 16.3281 57.8359 14.9219 58.9922 13.7344C60.1641 12.5469 61.5234 11.6172 63.0703 10.9453C64.6328 10.2734 66.2969 9.9375 68.0625 9.9375C68.625 9.9375 69.2031 9.98438 69.7969 10.0781C70.4062 10.1719 70.9922 10.3281 71.5547 10.5469C72.1328 10.75 72.6719 11.0234 73.1719 11.3672C73.6719 11.7109 74.0938 12.1328 74.4375 12.6328V0.914062H80.8828V36ZM74.4375 23.2266C74.4375 22.3516 74.2656 21.5078 73.9219 20.6953C73.5938 19.8672 73.1406 19.1406 72.5625 18.5156C71.9844 17.875 71.3047 17.3672 70.5234 16.9922C69.7578 16.6016 68.9375 16.4062 68.0625 16.4062C67.1875 16.4062 66.3594 16.5625 65.5781 16.875C64.8125 17.1875 64.1406 17.6406 63.5625 18.2344C63 18.8125 62.5547 19.5234 62.2266 20.3672C61.8984 21.2109 61.7344 22.1641 61.7344 23.2266C61.7344 24.1484 61.8984 25.0234 62.2266 25.8516C62.5547 26.6797 63 27.4062 63.5625 28.0312C64.1406 28.6562 64.8125 29.1484 65.5781 29.5078C66.3594 29.8672 67.1875 30.0469 68.0625 30.0469C68.9375 30.0469 69.7578 29.8594 70.5234 29.4844C71.3047 29.0938 71.9844 28.5859 72.5625 27.9609C73.1406 27.3203 73.5938 26.5938 73.9219 25.7812C74.2656 24.9531 74.4375 24.1016 74.4375 23.2266ZM92.1797 36H85.7812V10.8984H87.3281L89.4375 13.875C90.4688 12.9375 91.6406 12.2188 92.9531 11.7188C94.2656 11.2031 95.625 10.9453 97.0312 10.9453H102.68V17.3203H97.0312C96.3594 17.3203 95.7266 17.4453 95.1328 17.6953C94.5391 17.9453 94.0234 18.2891 93.5859 18.7266C93.1484 19.1641 92.8047 19.6797 92.5547 20.2734C92.3047 20.8672 92.1797 21.5 92.1797 22.1719V36Z" fill="#00A96D"></path>
</svg></svg></g></svg>